<svg aria-hidden="true" style="position: absolute; width: 0; height: 0; overflow: hidden;" version="1.1" xmlns="http://www.w3.org/2000/svg" xmlns:xlink="http://www.w3.org/1999/xlink">
<defs>
<symbol id="icon-bx-pulse" viewBox="0 0 32 32">
<path d="M22.627 6.343c-0.149-0.585-0.671-1.011-1.293-1.011-0.586 0-1.084 0.378-1.262 0.904l-0.003 0.009-4.248 12.739-3.936-8.859c-0.214-0.469-0.679-0.789-1.219-0.789-0.557 0-1.035 0.341-1.235 0.826l-0.003 0.009-2.331 5.829h-4.431v2.667h4.431c1.097 0 2.069-0.659 2.475-1.676l1.159-2.896 4.049 9.113c0.216 0.484 0.695 0.792 1.22 0.792l0.064-0.001c0.559-0.027 1.026-0.396 1.197-0.901l0.003-0.009 3.885-11.656 1.305 5.215c0.297 1.169 1.34 2.020 2.582 2.020 0.002 0 0.003 0 0.005 0h4.292v-2.667h-4.293l-2.413-9.657z"></path>
</symbol>
</defs>
</svg>
